<svg width="63" height="56" viewBox="0 0 63 56" fill="none" xmlns="http://www.w3.org/2000/svg">
<g clip-path="url(#clip0_17_111)">
<path d="M45.011 48.3922C42.9022 50.4595 37.6229 55.647 37.6229 55.7643C37.6229 55.8892 51.9969 55.8018 56.2947 55.7728C57.0681 55.7675 57.8008 55.4591 58.3475 54.9146L61.6368 51.6387C62.1888 51.089 62.4991 50.3431 62.4991 49.5656V1.87713C62.4991 0.762675 61.8228 -0.0047239 60.7038 0.00193509C59.8419 0.00706592 58.6799 0.0219816 57.2377 0.0423178C56.5482 0.0520372 55.8793 0.304386 55.3597 0.755614C48.4153 6.78637 50.5656 6.16773 36.1839 18.2539C36.0126 18.3978 35.9925 18.6642 36.1509 18.8219C37.8284 20.631 38.6653 21.4886 40.9204 23.2212C41.1674 23.4108 41.4715 23.513 41.7832 23.513C42.1371 23.513 42.4771 23.3828 42.7394 23.1461C44.577 21.4861 52.0313 14.7596 52.1953 14.7172C52.3546 14.6761 53.0037 14.5801 53.5445 14.8399C53.7365 14.932 53.8872 15.0904 54.002 15.269C54.181 15.5472 54.2461 15.787 54.2561 16.1832V44.6229C54.2561 46.2422 52.9381 47.5548 51.3121 47.5548H47.0697C46.298 47.5548 45.5609 47.8533 45.011 48.3922Z" fill="#7A5CCB"/>
<path d="M0.294393 0H5.50432C5.56243 0 5.61928 0.0171336 5.66762 0.0492419L6.01759 0.2816C6.02922 0.289319 6.04029 0.297855 6.05068 0.307138L35.5797 26.6433C35.6074 26.668 35.63 26.6976 35.6465 26.7306L36.0119 27.4582C36.0448 27.5238 36.0519 27.5994 36.0316 27.6699L35.7914 28.507C35.7766 28.5589 35.7475 28.6057 35.7078 28.6423L32.0888 31.9581L24.5818 38.7016L6.66985 54.9322C6.63949 54.9598 6.60373 54.9806 6.56481 54.9935L5.84296 55.233C5.77689 55.255 5.70518 55.2529 5.64053 55.2271L5.05434 54.9935C5.02148 54.9806 4.99128 54.9615 4.96517 54.9378L1.61916 51.8953L1.1833 51.4611C1.18183 51.4605 1.17993 51.4587 1.17757 51.4555L1.1833 51.4611C1.2233 51.4807 0.950876 50.6448 1.03037 50.1361C1.10893 49.6336 1.70616 49.0238 1.76215 48.9675C1.76524 48.9645 1.76798 48.9619 1.77123 48.959L23.8458 29.0262L24.7014 28.0523C24.8007 27.9393 24.7982 27.7698 24.6956 27.6597L22.9626 25.801L15.8972 19.3508L11.1869 15.2461L9.50496 13.7106C9.45068 13.661 9.3797 13.6335 9.30604 13.6335H8.53738C8.37479 13.6335 8.24299 13.7648 8.24299 13.9267V15.8325V22.4545C8.24299 22.5322 8.21196 22.6068 8.15676 22.6618L0.50256 30.2849C0.317102 30.4696 0 30.3388 0 30.0776V0.293194C0 0.131267 0.131804 0 0.294393 0Z" fill="#7A5CCB"/>
</g>
<defs>
<clipPath id="clip0_17_111">
<rect width="63" height="56" fill="white"/>
</clipPath>
</defs>
</svg>
