<svg width="30" height="29" viewBox="0 0 30 29" fill="none" xmlns="http://www.w3.org/2000/svg">
<g clip-path="url(#clip0_93_455)">
<path d="M14.942 0C6.69082 0 0 6.64747 0 14.8478C0 21.408 4.28133 26.9736 10.2183 28.9369C10.965 29.0743 11.2392 28.6148 11.2392 28.2226C11.2392 27.8686 11.2253 26.6989 11.2189 25.4582C7.06195 26.3564 6.1848 23.7064 6.1848 23.7064C5.50512 21.9902 4.52578 21.5339 4.52578 21.5339C3.17016 20.6123 4.62797 20.6312 4.62797 20.6312C6.12844 20.736 6.91852 22.1613 6.91852 22.1613C8.25117 24.4313 10.414 23.775 11.2666 23.3957C11.4007 22.4359 11.788 21.781 12.2153 21.4102C8.89652 21.0347 5.40762 19.7616 5.40762 14.0724C5.40762 12.4514 5.99133 11.1268 6.94723 10.087C6.79207 9.71298 6.28066 8.20288 7.09195 6.15769C7.09195 6.15769 8.34668 5.75862 11.2021 7.67967C12.3939 7.35059 13.6721 7.1857 14.942 7.18011C16.2118 7.1857 17.4911 7.35059 18.6852 7.67967C21.5372 5.75862 22.7902 6.15769 22.7902 6.15769C23.6034 8.20288 23.0918 9.71298 22.9366 10.087C23.8946 11.1268 24.4744 12.4513 24.4744 14.0724C24.4744 19.7751 20.9789 21.0309 17.6517 21.3984C18.1876 21.8592 18.6652 22.7628 18.6652 24.148C18.6652 26.1346 18.6478 27.7335 18.6478 28.2226C18.6478 28.6177 18.9168 29.0807 19.6743 28.9349C25.6079 26.9694 29.8839 21.4058 29.8839 14.8478C29.8839 6.64747 23.194 0 14.942 0Z" fill="#7A5CCB"/>
<path d="M5.59629 21.1509C5.56348 21.2247 5.44653 21.2468 5.34024 21.1962C5.23184 21.1478 5.1709 21.0472 5.20606 20.9731C5.23828 20.8972 5.35524 20.876 5.4634 20.927C5.57203 20.9753 5.63391 21.0769 5.59629 21.1509ZM6.33129 21.8026C6.26004 21.8683 6.12071 21.8378 6.02614 21.734C5.9284 21.6305 5.91012 21.4921 5.98242 21.4254C6.0559 21.3599 6.19102 21.3905 6.28899 21.4941C6.38672 21.5988 6.40571 21.7363 6.33118 21.8027M6.83555 22.6364C6.74391 22.6996 6.59414 22.6403 6.50168 22.5083C6.41016 22.3763 6.41016 22.218 6.50368 22.1545C6.59649 22.091 6.74391 22.1481 6.83766 22.2791C6.92907 22.4134 6.92907 22.5717 6.83543 22.6365M7.68821 23.6021C7.60629 23.6917 7.43192 23.6678 7.30418 23.5453C7.17364 23.4255 7.13719 23.2556 7.21934 23.1659C7.30219 23.076 7.47762 23.1012 7.60629 23.2227C7.73602 23.3422 7.77551 23.5133 7.68821 23.6021ZM8.79024 23.9281C8.75426 24.0443 8.58621 24.0972 8.417 24.0478C8.24801 23.997 8.13739 23.8607 8.17149 23.7432C8.20664 23.6262 8.37539 23.5711 8.5459 23.624C8.71465 23.6746 8.82539 23.8098 8.79024 23.9281ZM10.0446 24.0664C10.0488 24.1889 9.90528 24.2904 9.72762 24.2926C9.54891 24.2965 9.40442 24.1974 9.40254 24.077C9.40254 23.9533 9.54282 23.8527 9.72141 23.8498C9.89907 23.8463 10.0446 23.9447 10.0446 24.0664ZM11.2767 24.0194C11.298 24.1389 11.1745 24.2616 10.9982 24.2942C10.8247 24.3257 10.6642 24.252 10.642 24.1335C10.6205 24.011 10.7463 23.8884 10.9194 23.8566C11.0961 23.8261 11.2542 23.898 11.2767 24.0194Z" fill="#7A5CCB"/>
</g>
<defs>
<clipPath id="clip0_93_455">
<rect width="30" height="29" fill="white"/>
</clipPath>
</defs>
</svg>
