<svg width="60" height="64" viewBox="0 0 60 64" fill="none" xmlns="http://www.w3.org/2000/svg">
<g clip-path="url(#clip0_195_56)">
<path d="M0.542145 16.6511L5.95825 19.8012L33.8642 3.67107L28.3901 0.520996L0.542145 16.6511Z" fill="#0E0F14"/>
<path fill-rule="evenodd" clip-rule="evenodd" d="M28.1403 0.0891631C28.2162 0.0453058 28.3024 0.0222168 28.3901 0.0222168C28.4778 0.0222168 28.564 0.0453058 28.6399 0.0891631L34.114 3.23923C34.1904 3.28295 34.2539 3.3461 34.2981 3.42226C34.3423 3.49843 34.3655 3.58492 34.3655 3.67297C34.3655 3.76102 34.3423 3.8475 34.2981 3.92367C34.2539 3.99984 34.1904 4.06298 34.114 4.1067L6.21008 20.2348C6.13389 20.279 6.04736 20.3023 5.95926 20.3023C5.87116 20.3023 5.78463 20.279 5.70844 20.2348L0.29234 17.0807C0.216391 17.0369 0.153323 16.9738 0.109474 16.8978C0.0656257 16.8219 0.0425415 16.7357 0.0425415 16.648C0.0425415 16.5603 0.0656257 16.4741 0.109474 16.3982C0.153323 16.3222 0.216391 16.2591 0.29234 16.2153L28.1403 0.0871643V0.0891631ZM28.3901 1.10054L1.54144 16.651L5.96226 19.2214L32.8629 3.67297L28.3901 1.10054Z" fill="#F4F4F5"/>
<path d="M0.542145 16.6512V48.9054L6.0182 52.0555L5.95825 19.8012L0.542145 16.6512Z" fill="#0E0F14"/>
<path fill-rule="evenodd" clip-rule="evenodd" d="M0.29433 16.2154C0.370285 16.1715 0.456445 16.1484 0.54415 16.1484C0.631855 16.1484 0.718015 16.1715 0.79397 16.2154L6.21007 19.3675C6.28588 19.4112 6.34886 19.4741 6.3927 19.5499C6.43654 19.6257 6.45972 19.7116 6.45989 19.7992L6.51785 52.0554C6.51859 52.1437 6.49593 52.2306 6.45219 52.3072C6.40845 52.3839 6.34519 52.4476 6.26884 52.4919C6.19249 52.5361 6.10577 52.5594 6.01752 52.5593C5.92926 52.5591 5.84262 52.5356 5.76639 52.4911L0.29433 49.3391C0.217858 49.2954 0.15429 49.2323 0.110068 49.1561C0.0658455 49.0799 0.0425394 48.9934 0.042511 48.9053L0.042511 16.6511C0.0425394 16.563 0.0658455 16.4765 0.110068 16.4004C0.15429 16.3242 0.217858 16.2591 0.29433 16.2154ZM1.04379 17.5206V48.6155L5.51457 51.1899L5.45861 20.089L1.04379 17.5206Z" fill="#F4F4F5"/>
<path d="M5.95825 19.8013L33.8642 3.67114V35.9294L6.01621 52.0575L5.96025 19.7993L5.95825 19.8013Z" fill="#F4F4F5"/>
<path fill-rule="evenodd" clip-rule="evenodd" d="M34.114 3.23931C34.1901 3.28325 34.2533 3.34649 34.2971 3.42264C34.341 3.49879 34.364 3.58516 34.3638 3.67304V35.9293C34.3636 36.0168 34.3405 36.1028 34.2966 36.1785C34.2528 36.2543 34.1898 36.3172 34.114 36.361L6.26804 52.4911C6.19196 52.5355 6.1055 52.559 6.01741 52.5592C5.92933 52.5594 5.84276 52.5364 5.76647 52.4923C5.69018 52.4483 5.62688 52.3849 5.583 52.3085C5.53911 52.2321 5.5162 52.1455 5.51658 52.0574L5.45862 19.8012C5.45845 19.7133 5.48145 19.6269 5.52531 19.5508C5.56917 19.4746 5.63234 19.4114 5.70844 19.3674L33.6124 3.23931C33.6883 3.19545 33.7745 3.17236 33.8622 3.17236C33.9499 3.17236 34.038 3.19545 34.114 3.23931ZM6.4579 20.089L6.51786 51.1899L33.3645 35.6395V4.53851L6.4639 20.089H6.4579Z" fill="#F4F4F5"/>
<path d="M10.1313 22.1696L15.5474 25.3217L43.4513 9.19157L37.9792 6.0415L10.1313 22.1696Z" fill="#0E0F14"/>
<path fill-rule="evenodd" clip-rule="evenodd" d="M37.7274 5.60992C37.8034 5.56606 37.8895 5.54297 37.9772 5.54297C38.0649 5.54297 38.1511 5.56606 38.227 5.60992L43.7031 8.75998C43.7795 8.80371 43.843 8.86685 43.8872 8.94301C43.9314 9.01918 43.9546 9.10567 43.9546 9.19372C43.9546 9.28177 43.9314 9.36826 43.8872 9.44442C43.843 9.52059 43.7795 9.58373 43.7031 9.62745L15.7992 25.7556C15.7227 25.8002 15.6358 25.8237 15.5474 25.8237C15.4589 25.8237 15.372 25.8002 15.2955 25.7556L9.87944 22.6035C9.80349 22.5596 9.74042 22.4966 9.69657 22.4206C9.65272 22.3446 9.62964 22.2585 9.62964 22.1708C9.62964 22.0831 9.65272 21.9969 9.69657 21.9209C9.74042 21.845 9.80349 21.7819 9.87944 21.738L37.7274 5.60992ZM37.9792 6.6213L11.1285 22.1718L15.5494 24.7422L42.45 9.19372L37.9792 6.6213Z" fill="#F4F4F5"/>
<path d="M10.1313 22.1697V54.4279L15.6053 57.578L15.5474 25.3237L10.1313 22.1697Z" fill="#0E0F14"/>
<path fill-rule="evenodd" clip-rule="evenodd" d="M9.88144 21.736C9.95764 21.6918 10.0442 21.6685 10.1323 21.6685C10.2204 21.6685 10.3069 21.6918 10.3831 21.736L15.7992 24.888C15.875 24.9318 15.938 24.9947 15.9818 25.0705C16.0257 25.1463 16.0488 25.2322 16.049 25.3198L16.105 57.576C16.1055 57.664 16.0828 57.7505 16.0392 57.8269C15.9955 57.9033 15.9325 57.9668 15.8564 58.011C15.7804 58.0552 15.694 58.0786 15.6061 58.0787C15.5181 58.0788 15.4317 58.0557 15.3555 58.0117L9.88144 54.8597C9.80534 54.8157 9.74218 54.7525 9.69832 54.6763C9.65445 54.6002 9.63145 54.5138 9.63162 54.4259V22.1697C9.63145 22.0818 9.65445 21.9955 9.69832 21.9193C9.74218 21.8432 9.80534 21.7799 9.88144 21.736ZM10.6329 23.0412V54.1361L15.1017 56.7105L15.0477 25.6096L10.6329 23.0412Z" fill="#F4F4F5"/>
<path d="M15.5474 25.3218L43.4513 9.19165V41.4499L15.6053 57.578L15.5474 25.3218Z" fill="#F4F4F5"/>
<path fill-rule="evenodd" clip-rule="evenodd" d="M43.7011 8.76006C43.7775 8.80375 43.8411 8.86687 43.8853 8.94304C43.9296 9.01921 43.9529 9.10572 43.9529 9.1938V41.45C43.9527 41.5376 43.9295 41.6235 43.8857 41.6993C43.8419 41.7751 43.7789 41.838 43.7031 41.8818L15.8551 58.0119C15.779 58.0563 15.6926 58.0798 15.6045 58.08C15.5164 58.0802 15.4298 58.0571 15.3535 58.0131C15.2773 57.969 15.214 57.9056 15.1701 57.8292C15.1262 57.7529 15.1033 57.6662 15.1037 57.5781L15.0477 25.3219C15.0475 25.234 15.0705 25.1477 15.1144 25.0715C15.1583 24.9954 15.2214 24.9321 15.2975 24.8882L43.2014 8.76006C43.2774 8.7162 43.3635 8.69312 43.4513 8.69312C43.539 8.69312 43.6251 8.7162 43.7011 8.76006ZM16.051 25.6097L16.1049 56.7107L42.9536 41.1602V10.0593L16.051 25.6097Z" fill="#F4F4F5"/>
<path d="M15.5573 30.7186L25.714 63.4825L31.5079 61.5856L20.9475 28.7817L15.5573 30.7186Z" fill="#0E0F14"/>
<path fill-rule="evenodd" clip-rule="evenodd" d="M21.1673 28.334C21.228 28.3634 21.2822 28.4047 21.3265 28.4556C21.3708 28.5064 21.4043 28.5657 21.4251 28.6298L31.9835 61.4317C32.0245 61.5576 32.0138 61.6946 31.9539 61.8127C31.8939 61.9307 31.7896 62.0202 31.6637 62.0613L25.8679 63.9582C25.8048 63.9789 25.7382 63.9869 25.672 63.9816C25.6058 63.9762 25.5413 63.9578 25.4824 63.9273C25.4234 63.8968 25.371 63.8548 25.3285 63.8038C25.2859 63.7528 25.2539 63.6939 25.2344 63.6304L15.0797 30.8665C15.0412 30.7432 15.052 30.6098 15.1098 30.4942C15.1675 30.3787 15.2678 30.2901 15.3895 30.2468L20.7796 28.312C20.8426 28.289 20.9095 28.279 20.9765 28.2824C21.0434 28.2858 21.109 28.3027 21.1693 28.332L21.1673 28.334ZM16.1789 31.0284L26.0418 62.8489L30.8783 61.2638L20.6277 29.4293L16.1769 31.0284H16.1789Z" fill="#F4F4F5"/>
<path d="M43.4473 15.8115L53.604 48.5754L59.3978 46.6786L48.8374 13.8767L43.4473 15.8115Z" fill="#0E0F14"/>
<path fill-rule="evenodd" clip-rule="evenodd" d="M49.0592 13.4272C49.1196 13.4567 49.1733 13.4982 49.2173 13.549C49.2612 13.5998 49.2945 13.659 49.315 13.723L59.8734 46.5269C59.9138 46.6525 59.9028 46.789 59.8429 46.9066C59.783 47.0242 59.679 47.1133 59.5537 47.1545L53.7578 49.0513C53.6949 49.0717 53.6285 49.0795 53.5625 49.074C53.4965 49.0685 53.4323 49.05 53.3735 49.0195C53.3148 48.989 53.2626 48.9472 53.2202 48.8963C53.1778 48.8455 53.1458 48.7868 53.1263 48.7235L42.9696 15.9596C42.9312 15.8363 42.942 15.7029 42.9997 15.5874C43.0575 15.4719 43.1577 15.3832 43.2794 15.34L48.6695 13.4052C48.7326 13.3825 48.7996 13.3727 48.8666 13.3765C48.9336 13.3803 48.9991 13.3975 49.0592 13.4272ZM44.0688 16.1215L53.9317 47.942L58.7682 46.359L48.5196 14.5225L44.0688 16.1215Z" fill="#F4F4F5"/>
<path d="M20.9475 28.7836L48.8374 13.8767L59.3998 46.6786L31.5099 61.5855L20.9495 28.7816L20.9475 28.7836Z" fill="#0E0F14"/>
<path fill-rule="evenodd" clip-rule="evenodd" d="M49.0273 13.4131C49.095 13.4405 49.1558 13.4825 49.2055 13.536C49.2553 13.5896 49.2926 13.6533 49.315 13.7229L59.8735 46.5268C59.9093 46.6382 59.9049 46.7586 59.8611 46.8671C59.8173 46.9755 59.7368 47.0652 59.6336 47.1204L31.7437 62.0273C31.6791 62.0622 31.6075 62.0824 31.5342 62.0865C31.4608 62.0906 31.3875 62.0785 31.3193 62.051C31.2512 62.0236 31.19 61.9814 31.14 61.9275C31.09 61.8737 31.0525 61.8095 31.0302 61.7395L20.4718 28.9356C20.436 28.8242 20.4403 28.7038 20.4842 28.5953C20.528 28.4868 20.6085 28.3971 20.7116 28.3419L48.6016 13.4331C48.6661 13.3982 48.7375 13.378 48.8107 13.3738C48.884 13.3697 48.9572 13.3817 49.0253 13.4091L49.0273 13.4131ZM21.553 29.0275L31.7997 60.862L58.7922 46.4348L48.5476 14.6003L21.555 29.0275H21.553Z" fill="#F4F4F5"/>
<path d="M20.9475 28.7836L15.5573 30.7184L43.4473 15.8115L48.8374 13.8767L20.9475 28.7816V28.7836Z" fill="#0E0F14"/>
<path fill-rule="evenodd" clip-rule="evenodd" d="M49.2951 13.6729C49.347 13.7884 49.3532 13.9192 49.3124 14.0391C49.2716 14.1589 49.1868 14.2588 49.0752 14.3185L21.1813 29.2234C21.1601 29.235 21.138 29.2451 21.1153 29.2534L15.7252 31.1902C15.6041 31.244 15.4666 31.2475 15.3429 31.1999C15.2192 31.1523 15.1195 31.0575 15.0657 30.9364C15.0119 30.8152 15.0084 30.6777 15.056 30.554C15.1036 30.4303 15.1984 30.3306 15.3195 30.2768L43.2114 15.3699C43.2333 15.3583 43.2561 15.3483 43.2794 15.3399L48.6695 13.4051C48.7883 13.3625 48.9189 13.3664 49.0349 13.4161C49.151 13.4657 49.2439 13.5575 49.2951 13.6729Z" fill="#F4F4F5"/>
<path d="M36.8061 26.1113L34.9254 27.0727L33.0468 28.0341L31.5239 50.8042L35.2212 52.4572L38.0392 34.2403L52.7786 43.4807L53.9617 39.3372L36.8061 26.1113Z" fill="#F4F4F5"/>
<path fill-rule="evenodd" clip-rule="evenodd" d="M36.5802 25.6655C36.6645 25.6227 36.7592 25.6047 36.8533 25.6135C36.9474 25.6224 37.037 25.6577 37.1118 25.7155L54.2675 38.9394C54.3466 39.0007 54.4054 39.0843 54.4364 39.1795C54.4674 39.2746 54.4692 39.3769 54.4414 39.4731L53.2622 43.6185C53.2413 43.6937 53.2031 43.763 53.1506 43.8207C53.0981 43.8785 53.0328 43.9232 52.96 43.9511C52.8871 43.9791 52.8087 43.9896 52.731 43.9819C52.6534 43.9741 52.5786 43.9482 52.5128 43.9063L38.4169 35.0678L35.7168 52.533C35.7052 52.6092 35.676 52.6817 35.6317 52.7448C35.5874 52.8078 35.5291 52.8598 35.4613 52.8966C35.3936 52.9333 35.3183 52.9539 35.2413 52.9568C35.1642 52.9596 35.0876 52.9445 35.0173 52.9128L31.32 51.2618C31.2265 51.2203 31.148 51.1511 31.0951 51.0635C31.0422 50.9759 31.0175 50.8742 31.0242 50.7721L32.5471 28.0021C32.5524 27.9156 32.58 27.8321 32.6273 27.7595C32.6746 27.687 32.74 27.628 32.8169 27.5883L36.5802 25.6655ZM33.5264 28.3519L32.0475 50.4903L34.8255 51.7315L37.5435 34.1623C37.556 34.0804 37.5887 34.0029 37.6386 33.9368C37.6885 33.8706 37.7541 33.818 37.8294 33.7835C37.9047 33.749 37.9875 33.7338 38.0701 33.7392C38.1528 33.7446 38.2328 33.7705 38.303 33.8145L52.4808 42.7031L53.3861 39.525L36.7521 26.7029L33.5264 28.3519Z" fill="#F4F4F5"/>
</g>
<defs>
<clipPath id="clip0_195_56">
<rect width="60" height="64" fill="white"/>
</clipPath>
</defs>
</svg>
