<svg width="30" height="30" viewBox="0 0 30 30" fill="none" xmlns="http://www.w3.org/2000/svg">
<g clip-path="url(#clip0_195_6)">
<path d="M0 2.20045C0 1.01902 0.993047 0.0600586 2.21719 0.0600586H27.7828C29.0074 0.0600586 30 1.01902 30 2.20045V27.8C30 28.9818 29.0074 29.9401 27.7828 29.9401H2.21719C0.993164 29.9401 0 28.9819 0 27.8004V2.2001V2.20045Z" fill="#7A5CCB"/>
<path d="M9.11671 25.0656V11.6136H4.62749V25.0656H9.11718H9.11671ZM6.87304 9.77723C8.4382 9.77723 9.41261 8.74427 9.41261 7.45336C9.38331 6.13304 8.4382 5.12891 6.90281 5.12891C5.36636 5.12891 4.36288 6.13304 4.36288 7.45324C4.36288 8.74415 5.33695 9.77711 6.84363 9.77711H6.87269L6.87304 9.77723ZM11.6016 25.0656H16.0904V17.5542C16.0904 17.1527 16.1197 16.7501 16.2383 16.4633C16.5627 15.6597 17.3013 14.8279 18.5418 14.8279C20.1657 14.8279 20.8158 16.0614 20.8158 17.8699V25.0656H25.3045V17.3526C25.3045 13.2209 23.0901 11.2982 20.1367 11.2982C17.7152 11.2982 16.6518 12.6462 16.0609 13.5643H16.0908V11.614H11.6018C11.6604 12.876 11.6014 25.0661 11.6014 25.0661L11.6016 25.0656Z" fill="#0E0F14"/>
</g>
<defs>
<clipPath id="clip0_195_6">
<rect width="30" height="30" fill="white"/>
</clipPath>
</defs>
</svg>
