<svg width="30" height="30" viewBox="0 0 30 30" fill="none" xmlns="http://www.w3.org/2000/svg">
<g clip-path="url(#clip0_195_2)">
<path d="M6.88425 0.000260554H23.1159C24.0205 -0.00171695 24.9166 0.17501 25.7528 0.52028C26.5889 0.86555 27.3486 1.37256 27.9883 2.01222C28.628 2.65189 29.135 3.4116 29.4802 4.24774C29.8255 5.08388 30.0022 5.97998 30.0003 6.8846V23.1163C30.0022 24.0209 29.8255 24.917 29.4802 25.7531C29.135 26.5893 28.628 27.349 27.9883 27.9887C27.3486 28.6283 26.5889 29.1353 25.7528 29.4806C24.9166 29.8259 24.0205 30.0026 23.1159 30.0006H6.88425C5.97963 30.0026 5.08353 29.8259 4.24739 29.4806C3.41125 29.1353 2.65154 28.6283 2.01188 27.9887C1.37221 27.349 0.865191 26.5893 0.519921 25.7531C0.174651 24.917 -0.00206791 24.0209 -9.0397e-05 23.1163V6.8846C-0.00206791 5.97998 0.174651 5.08388 0.519921 4.24774C0.865191 3.4116 1.37221 2.65189 2.01188 2.01222C2.65154 1.37256 3.41125 0.86555 4.24739 0.52028C5.08353 0.17501 5.97963 -0.00171695 6.88425 0.000260554Z" fill="#7A5CCB"/>
<path d="M6.57299 8.53125C6.41499 8.53125 6.26599 8.55858 6.12499 8.61458L8.94799 11.5209L11.8023 14.4793L11.8543 14.5419L11.9377 14.6252L12.021 14.7086L12.1877 14.8856L14.6357 17.3959C14.6763 17.4213 14.7947 17.5306 14.887 17.5769C15.006 17.6363 15.1347 17.6913 15.2673 17.6959C15.4107 17.7009 15.557 17.6599 15.686 17.5973C15.7827 17.5503 15.8257 17.4829 15.9377 17.3963L18.771 14.4693L21.6357 11.5213L24.396 8.67759C24.2169 8.58068 24.0163 8.53045 23.8127 8.53158L6.57299 8.53125ZM5.70833 8.88525C5.40733 9.17059 5.21866 9.59925 5.21866 10.0833V19.6249C5.21866 20.0166 5.34433 20.3726 5.55199 20.6456L5.94766 20.2706L8.89566 17.4059L11.5103 14.8746L11.4583 14.8123L8.59366 11.8643L5.72899 8.90592L5.70833 8.88525ZM24.771 8.97925L21.9793 11.8646L19.125 14.8126L19.073 14.8646L21.7917 17.4999L24.7397 20.3646L24.9167 20.5313C25.0753 20.2766 25.1667 19.9629 25.1667 19.6249V10.0833C25.1667 9.65192 25.0173 9.26058 24.771 8.97925ZM11.8437 15.2186L9.23966 17.7499L6.28133 20.6146L5.90633 20.9793C6.10399 21.1066 6.32899 21.1876 6.57299 21.1876H23.8127C24.106 21.1876 24.372 21.0749 24.594 20.8959L24.4067 20.7086L21.4483 17.8439L18.7297 15.2189L16.2817 17.7396C16.1493 17.8276 16.0607 17.9249 15.9313 17.9846C15.723 18.0809 15.495 18.1623 15.2657 18.1589C15.0357 18.1553 14.81 18.0653 14.6037 17.9639C14.5 17.9129 14.4447 17.8623 14.3233 17.7606L11.8437 15.2186Z" fill="#0E0F14"/>
</g>
<defs>
<clipPath id="clip0_195_2">
<rect width="30" height="30" fill="white"/>
</clipPath>
</defs>
</svg>
