<svg width="60" height="60" viewBox="0 0 60 60" fill="none" xmlns="http://www.w3.org/2000/svg">
<g clip-path="url(#clip0_195_12)">
<path d="M28.0373 0.046893C27.9084 0.0586106 27.4983 0.0996222 27.1292 0.128916C18.6163 0.896419 10.6425 5.48972 5.59223 12.5496C2.78 16.475 0.981353 20.9277 0.301731 25.644C0.0615206 27.2903 0.0322266 27.7766 0.0322266 30.0088C0.0322266 32.241 0.0615206 32.7273 0.301731 34.3736C1.93048 45.6284 9.93946 55.0845 20.8017 58.5881C22.7468 59.2149 24.7974 59.6426 27.1292 59.9004C28.0373 60 31.9627 60 32.8708 59.9004C36.8958 59.4552 40.3056 58.4592 43.6686 56.7425C44.1842 56.4789 44.2838 56.4086 44.2135 56.35C44.1666 56.3148 41.9695 53.3679 39.3331 49.8057L34.5406 43.3317L28.5353 34.4439C25.2309 29.5577 22.5125 25.562 22.489 25.562C22.4656 25.5561 22.4421 29.505 22.4304 34.3268C22.4129 42.7693 22.407 43.1091 22.3015 43.3083C22.1492 43.5954 22.032 43.7125 21.786 43.8414C21.5985 43.9352 21.4344 43.9528 20.5498 43.9528H19.5362L19.2667 43.7829C19.0909 43.6715 18.962 43.5251 18.8741 43.3552L18.7511 43.0915L18.7628 31.3446L18.7804 19.5919L18.962 19.3634C19.0558 19.2403 19.255 19.0821 19.3956 19.006C19.6358 18.8888 19.7295 18.8771 20.7431 18.8771C21.9383 18.8771 22.1375 18.924 22.448 19.2638C22.5359 19.3575 25.7875 24.2555 29.6778 30.1553C33.568 36.0551 38.8878 44.111 41.5008 48.0656L46.2465 55.2544L46.4867 55.0962C48.6134 53.7135 50.8632 51.745 52.6443 49.6944C56.4349 45.3413 58.878 40.0332 59.6983 34.3736C59.9385 32.7273 59.9678 32.241 59.9678 30.0088C59.9678 27.7766 59.9385 27.2903 59.6983 25.644C58.0695 14.3892 50.0605 4.93313 39.1983 1.42957C37.2825 0.808537 35.2436 0.380845 32.9587 0.123057C32.3963 0.0644694 28.5236 2.25386e-05 28.0373 0.046893ZM40.3056 18.174C40.5869 18.3146 40.8154 18.5841 40.8974 18.8654C40.9442 19.0177 40.956 22.2752 40.9442 29.6163L40.9267 40.1504L39.0694 37.303L37.2063 34.4556V26.7982C37.2063 21.8475 37.2298 19.0646 37.2649 18.9298C37.3587 18.6017 37.5637 18.3439 37.8449 18.1916C38.0851 18.0686 38.173 18.0569 39.0929 18.0569C39.96 18.0569 40.1123 18.0686 40.3056 18.174Z" fill="#F4F4F5"/>
</g>
<defs>
<clipPath id="clip0_195_12">
<rect width="60" height="60" fill="white"/>
</clipPath>
</defs>
</svg>
