<svg width="90" height="72" viewBox="0 0 90 72" fill="none" xmlns="http://www.w3.org/2000/svg">
<g clip-path="url(#clip0_195_50)">
<path d="M74.4467 32.8818C74.4467 28.9573 69.5198 25.2381 61.9659 22.9317C63.7091 15.2518 62.9344 9.1416 59.5204 7.18537C58.7335 6.7265 57.8137 6.50914 56.8089 6.50914V9.20198C57.3657 9.20198 57.8137 9.31066 58.1889 9.51593C59.8352 10.4578 60.5496 14.0442 59.9925 18.657C59.8596 19.7921 59.6417 20.9876 59.3753 22.2072C57.0024 21.6276 54.4119 21.1808 51.6882 20.891C50.054 18.657 48.3592 16.6283 46.6522 14.8533C50.5987 11.1944 54.3031 9.18988 56.8211 9.18988V6.49707C53.4918 6.49707 49.1339 8.86386 44.7276 12.9695C40.321 8.888 35.9631 6.54538 32.6341 6.54538V9.23819C35.1399 9.23819 38.8563 11.2306 42.8027 14.8653C41.1079 16.6404 39.4131 18.657 37.803 20.891C35.0671 21.1808 32.4766 21.6276 30.1039 22.2193C29.8254 21.0117 29.6197 19.8404 29.4743 18.7174C28.9056 14.1046 29.6075 10.5182 31.2419 9.56423C31.6049 9.34687 32.077 9.25028 32.6341 9.25028V6.55745C31.6171 6.55745 30.697 6.77481 29.8982 7.23368C26.4964 9.18988 25.7339 15.288 27.489 22.9438C19.9594 25.2623 15.0566 28.9695 15.0566 32.8818C15.0566 36.8065 19.9836 40.5257 27.5375 42.8319C25.7942 50.512 26.569 56.622 29.9829 58.5783C30.7698 59.0371 31.6897 59.2544 32.7066 59.2544C36.0356 59.2544 40.3938 56.8877 44.8001 52.7821C49.2065 56.8637 53.5646 59.2064 56.8936 59.2064C57.9103 59.2064 58.8304 58.989 59.6295 58.53C63.0311 56.5737 63.7939 50.4756 62.0384 42.82C69.5439 40.5135 74.4467 36.7943 74.4467 32.8818ZM58.6853 24.8275C58.2373 26.3854 57.6805 27.9912 57.0509 29.5973C56.5547 28.6314 56.0342 27.6653 55.4652 26.6992C54.9084 25.7332 54.315 24.7913 53.7219 23.8736C55.4408 24.1272 57.0993 24.4411 58.6853 24.8275ZM53.1407 37.6878C52.1966 39.3182 51.2283 40.8638 50.2235 42.3008C48.4196 42.4577 46.5919 42.5422 44.7517 42.5422C42.9237 42.5422 41.0957 42.4577 39.3043 42.3127C38.2994 40.8756 37.3187 39.3422 36.3745 37.724C35.4545 36.1422 34.6194 34.5362 33.8566 32.9182C34.6072 31.3 35.4545 29.6818 36.3626 28.1C37.3068 26.4699 38.2751 24.9242 39.2799 23.4872C41.0838 23.3302 42.9115 23.2457 44.7517 23.2457C46.5797 23.2457 48.4077 23.3302 50.1991 23.4751C51.2039 24.9121 52.1846 26.4456 53.1288 28.0638C54.0489 29.6456 54.884 31.2517 55.6468 32.8699C54.884 34.4878 54.0489 36.106 53.1407 37.6878ZM57.0509 36.1182C57.6864 37.6919 58.2439 39.2957 58.7216 40.924C57.1356 41.3104 55.4652 41.6365 53.7341 41.8901C54.3272 40.9604 54.9203 40.0065 55.4774 39.0282C56.0342 38.0623 56.5547 37.084 57.0509 36.1182ZM44.7758 49.0026C43.65 47.8432 42.5241 46.5512 41.4105 45.1384C42.5001 45.1867 43.6137 45.2229 44.7395 45.2229C45.8775 45.2229 47.0033 45.1989 48.105 45.1384C47.0659 46.4854 45.9545 47.7754 44.7758 49.0026ZM35.7693 41.8901C34.0504 41.6365 32.3918 41.3225 30.8061 40.9361C31.2538 39.3784 31.8109 37.7723 32.4403 36.1663C32.9367 37.1324 33.4573 38.0985 34.026 39.0644C34.595 40.0305 35.1762 40.9723 35.7693 41.8901ZM44.7154 16.7612C45.8412 17.9204 46.967 19.2125 48.0807 20.6253C46.9911 20.577 45.8775 20.5408 44.7517 20.5408C43.6137 20.5408 42.4879 20.5649 41.3864 20.6253C42.4255 19.2784 43.5367 17.9884 44.7154 16.7612ZM35.7571 23.8736C35.164 24.8034 34.5709 25.7574 34.0141 26.7353C33.4573 27.7015 32.9367 28.6676 32.4403 29.6334C31.8048 28.0598 31.2473 26.4559 30.7698 24.8275C32.3556 24.4532 34.026 24.1272 35.7571 23.8736ZM24.8016 38.992C20.5163 37.1686 17.7441 34.7778 17.7441 32.8818C17.7441 30.986 20.5163 28.5831 24.8016 26.7718C25.8427 26.3249 26.9807 25.9264 28.1549 25.5521C28.8449 27.9188 29.7528 30.3822 30.8787 32.9061C29.765 35.4178 28.869 37.869 28.1912 40.2238C26.9929 39.8493 25.8549 39.4389 24.8016 38.992ZM31.3145 56.2478C29.6681 55.306 28.9538 51.7196 29.5108 47.1066C29.644 45.9717 29.8617 44.7761 30.128 43.5564C32.5009 44.1361 35.0915 44.583 37.8152 44.8727C39.4493 47.1066 41.1442 49.1352 42.8511 50.9103C38.9047 54.5693 35.2003 56.5737 32.6823 56.5737C32.1376 56.5618 31.6777 56.453 31.3145 56.2478ZM60.0291 47.0464C60.5978 51.6591 59.8959 55.2455 58.2614 56.1994C57.8984 56.4168 57.4263 56.5135 56.8693 56.5135C54.3634 56.5135 50.6471 54.521 46.7007 50.8863C48.3955 49.1112 50.0903 47.0947 51.7004 44.8606C54.4363 44.5708 57.0268 44.124 59.3994 43.5323C59.678 44.752 59.8959 45.9234 60.0291 47.0464ZM64.6896 38.992C63.6485 39.4389 62.5105 39.8374 61.3362 40.2117C60.6462 37.845 59.7383 35.3816 58.6125 32.8577C59.7264 30.346 60.6222 27.8948 61.3 25.54C62.4986 25.9143 63.6363 26.3249 64.7018 26.7718C68.9871 28.5949 71.7593 30.986 71.7593 32.8818C71.7471 34.7778 68.9749 37.1807 64.6896 38.992Z" fill="#F4F4F5"/>
<path d="M44.7395 38.4003C47.7951 38.4003 50.2719 35.9296 50.2719 32.8816C50.2719 29.8339 47.7951 27.3633 44.7395 27.3633C41.6842 27.3633 39.2073 29.8339 39.2073 32.8816C39.2073 35.9296 41.6842 38.4003 44.7395 38.4003ZM17.7534 68.756H15.9272V71.8933H14.8966V64.1379H17.4704C18.3461 64.1379 19.019 64.3369 19.4889 64.7346C19.9623 65.1321 20.1991 65.711 20.1991 66.4708C20.1991 66.9539 20.0674 67.3746 19.8039 67.7334C19.5441 68.092 19.1809 68.3601 18.7146 68.5375L20.5408 71.8293V71.8933H19.4408L17.7534 68.756ZM15.9272 67.9197H17.5025C18.0115 67.9197 18.4156 67.7882 18.7146 67.5255C19.0172 67.2628 19.1685 66.9112 19.1685 66.4708C19.1685 65.9915 19.0243 65.624 18.736 65.3683C18.4512 65.1126 18.0382 64.983 17.4971 64.9795H15.9272V67.9197ZM23.8837 72C23.1004 72 22.4632 71.7443 21.9719 71.2329C21.4806 70.7179 21.235 70.0307 21.235 69.1715V68.9904C21.235 68.4187 21.3436 67.9092 21.5607 67.4618C21.7814 67.0106 22.0876 66.659 22.4792 66.4071C22.8743 66.1514 23.3015 66.0234 23.7608 66.0234C24.512 66.0234 25.0958 66.2702 25.5122 66.7638C25.9288 67.2574 26.1369 67.964 26.1369 68.8837V69.2939H22.2229C22.2371 69.8622 22.4027 70.3221 22.7195 70.6736C23.0399 71.0214 23.4457 71.1956 23.937 71.1956C24.2859 71.1956 24.5813 71.1246 24.8233 70.9825C25.0655 70.8405 25.2772 70.6523 25.4588 70.4179L26.0622 70.8867C25.5779 71.6287 24.8519 72 23.8837 72ZM23.7608 66.8332C23.362 66.8332 23.0274 66.9787 22.7569 67.2698C22.4863 67.5576 22.319 67.9624 22.2549 68.4843H25.1492V68.4098C25.1207 67.9092 24.9854 67.522 24.7434 67.2485C24.5011 66.9717 24.1736 66.8332 23.7608 66.8332ZM30.8521 71.8933C30.795 71.7796 30.7487 71.5774 30.7133 71.286C30.2539 71.7618 29.7057 72 29.0685 72C28.499 72 28.031 71.8401 27.6642 71.5204C27.3012 71.1972 27.1195 70.7889 27.1195 70.2954C27.1195 69.6954 27.3475 69.2301 27.803 68.8999C28.2621 68.5659 28.9067 68.399 29.7361 68.399H30.6973V67.9465C30.6973 67.6019 30.5939 67.3284 30.3876 67.1261C30.1811 66.9201 29.8766 66.8172 29.4743 66.8172C29.1219 66.8172 28.8265 66.9058 28.5881 67.0835C28.3496 67.2609 28.2302 67.4758 28.2302 67.728H27.237C27.237 67.4404 27.3385 67.1634 27.5413 66.8969C27.7478 66.6272 28.0256 66.4141 28.3745 66.2578C28.7269 66.1017 29.1129 66.0234 29.533 66.0234C30.1989 66.0234 30.7203 66.1903 31.0976 66.5243C31.475 66.8545 31.6707 67.3108 31.6851 67.893V70.5457C31.6851 71.0749 31.7527 71.4956 31.8881 71.808V71.8933H30.8521ZM29.2128 71.1424C29.5225 71.1424 29.8162 71.0625 30.0939 70.9026C30.3714 70.7428 30.5725 70.5351 30.6973 70.2794V69.097H29.9228C28.7126 69.097 28.1073 69.4502 28.1073 70.1568C28.1073 70.4657 28.2107 70.7074 28.417 70.8813C28.6235 71.0552 28.8888 71.1424 29.2128 71.1424ZM35.5511 71.1956C35.9035 71.1956 36.2116 71.0889 36.475 70.8759C36.7384 70.6628 36.8843 70.3966 36.9127 70.0769H37.8474C37.8295 70.4071 37.7156 70.7214 37.5055 71.0198C37.2954 71.3182 37.0142 71.5561 36.6617 71.7335C36.3128 71.9111 35.9428 72 35.5511 72C34.7645 72 34.1378 71.7389 33.6714 71.2169C33.2088 70.6912 32.9773 69.974 32.9773 69.0649V68.8999C32.9773 68.3388 33.0805 67.8398 33.287 67.4032C33.4936 66.9663 33.7889 66.6272 34.1735 66.3858C34.5614 66.1441 35.0189 66.0234 35.5457 66.0234C36.1937 66.0234 36.7313 66.217 37.1585 66.6042C37.5891 66.9911 37.8187 67.4936 37.8474 68.1114H36.9127C36.8843 67.7385 36.7419 67.4332 36.4855 67.1953C36.233 66.9539 35.9195 66.8332 35.5457 66.8332C35.0438 66.8332 34.654 67.0141 34.3763 67.3765C34.1023 67.735 33.9651 68.2554 33.9651 68.9372V69.1235C33.9651 69.7874 34.1023 70.2989 34.3763 70.6574C34.6505 71.0163 35.0422 71.1956 35.5511 71.1956ZM40.2982 64.7346V66.1301H41.3769V66.8918H40.2982V70.4657C40.2982 70.6966 40.3464 70.8705 40.4425 70.9877C40.5386 71.1014 40.7024 71.1583 40.9338 71.1583C41.0475 71.1583 41.2043 71.137 41.4035 71.0943V71.8933C41.1436 71.9643 40.8911 72 40.6453 72C40.204 72 39.8711 71.8666 39.6467 71.6003C39.4225 71.3341 39.3105 70.9558 39.3105 70.4657V66.8918H38.2583V66.1301H39.3105V64.7346H40.2982ZM51.3785 71.8933H50.3477L46.4338 65.917V71.8933H45.4032V64.1379H46.4338L50.3586 70.1409V64.1379H51.3785V71.8933ZM56.6116 71.8933C56.5544 71.7796 56.5082 71.5774 56.4727 71.286C56.0133 71.7618 55.4652 72 54.828 72C54.2584 72 53.7901 71.8401 53.4236 71.5204C53.0606 71.1972 52.879 70.7889 52.879 70.2954C52.879 69.6954 53.1066 69.2301 53.5625 68.8999C54.0216 68.5659 54.6661 68.399 55.4955 68.399H56.4567V67.9465C56.4567 67.6019 56.3533 67.3284 56.1468 67.1261C55.9405 66.9201 55.636 66.8172 55.2337 66.8172C54.8813 66.8172 54.586 66.9058 54.3475 67.0835C54.109 67.2609 53.9896 67.4758 53.9896 67.728H52.9965C52.9965 67.4404 53.098 67.1634 53.3007 66.8969C53.5073 66.6272 53.785 66.4141 54.1339 66.2578C54.4864 66.1017 54.8724 66.0234 55.2925 66.0234C55.9581 66.0234 56.4797 66.1903 56.8571 66.5243C57.2344 66.8545 57.4301 67.3108 57.4445 67.893V70.5457C57.4445 71.0749 57.5122 71.4956 57.6475 71.808V71.8933H56.6116ZM54.9722 71.1424C55.2819 71.1424 55.5756 71.0625 55.8534 70.9026C56.1308 70.7428 56.3319 70.5351 56.4567 70.2794V69.097H55.6823C54.472 69.097 53.8667 69.4502 53.8667 70.1568C53.8667 70.4657 53.9701 70.7074 54.1764 70.8813C54.3829 71.0552 54.6482 71.1424 54.9722 71.1424ZM60.3333 64.7346V66.1301H61.412V66.8918H60.3333V70.4657C60.3333 70.6966 60.3815 70.8705 60.4776 70.9877C60.5737 71.1014 60.7375 71.1583 60.9689 71.1583C61.0826 71.1583 61.2393 71.137 61.4388 71.0943V71.8933C61.1787 71.9643 60.9261 72 60.6804 72C60.2391 72 59.9062 71.8666 59.6818 71.6003C59.4576 71.3341 59.3456 70.9558 59.3456 70.4657V66.8918H58.2937V66.1301H59.3456V64.7346H60.3333ZM63.6442 71.8933H62.6561V66.1301H63.6442V71.8933ZM62.576 64.6012C62.576 64.4416 62.6242 64.3066 62.7203 64.1965C62.8199 64.0863 62.9658 64.0315 63.158 64.0315C63.3505 64.0315 63.4964 64.0863 63.596 64.1965C63.6956 64.3066 63.7454 64.4416 63.7454 64.6012C63.7454 64.7611 63.6956 64.8942 63.596 65.0008C63.4964 65.1072 63.3505 65.1607 63.158 65.1607C62.9658 65.1607 62.8199 65.1072 62.7203 65.0008C62.6242 64.8942 62.576 64.7611 62.576 64.6012ZM67.1364 70.5565L68.5673 66.1301H69.5767L67.5048 71.8933H66.7517L64.6587 66.1301H65.6679L67.1364 70.5565ZM72.8499 72C72.0668 72 71.4296 71.7443 70.9383 71.2329C70.447 70.7179 70.2014 70.0307 70.2014 69.1715V68.9904C70.2014 68.4187 70.31 67.9092 70.5271 67.4618C70.7477 67.0106 71.0539 66.659 71.4456 66.4071C71.8408 66.1514 72.2679 66.0234 72.727 66.0234C73.4782 66.0234 74.0621 66.2702 74.4787 66.7638C74.895 67.2574 75.1034 67.964 75.1034 68.8837V69.2939H71.1892C71.2035 69.8622 71.3689 70.3221 71.6859 70.6736C72.0062 71.0214 72.4122 71.1956 72.9032 71.1956C73.2522 71.1956 73.5478 71.1246 73.7898 70.9825C74.0318 70.8405 74.2437 70.6523 74.4253 70.4179L75.0287 70.8867C74.5444 71.6287 73.8182 72 72.8499 72ZM72.727 66.8332C72.3285 66.8332 71.9937 66.9787 71.7233 67.2698C71.4526 67.5576 71.2853 67.9624 71.2214 68.4843H74.1154V68.4098C74.087 67.9092 73.9516 67.522 73.7096 67.2485C73.4676 66.9717 73.1401 66.8332 72.727 66.8332Z" fill="#F4F4F5"/>
</g>
<defs>
<clipPath id="clip0_195_50">
<rect width="90" height="72" fill="white"/>
</clipPath>
</defs>
</svg>
