<svg width="60" height="36" viewBox="0 0 60 36" fill="none" xmlns="http://www.w3.org/2000/svg">
<g clip-path="url(#clip0_73_209)">
<path d="M30 0C22.0029 0 17.005 4.00008 15.0056 11.9995C18.0047 7.99942 21.5034 6.49995 25.5016 7.49959C27.783 8.06996 29.4135 9.72628 31.2187 11.559C34.1587 14.5444 37.5613 17.9996 44.9944 17.9996C52.9908 17.9996 57.9894 13.9995 59.9881 5.99937C56.9897 9.99946 53.491 11.4997 49.4921 10.5C47.2114 9.92966 45.5809 8.27334 43.7757 6.44066C40.8358 3.45523 37.4323 0 30 0ZM15.0056 17.9996C7.00923 17.9996 2.01058 21.9997 0.0118713 29.9999C3.01031 25.9998 6.50899 24.4996 10.5079 25.5C12.7886 26.0711 14.4191 27.7267 16.2243 29.5586C19.1642 32.544 22.5677 36 30 36C37.9971 36 42.995 31.9999 44.9944 23.9998C41.9952 27.9998 38.4966 29.5001 34.4984 28.4997C32.217 27.93 30.5865 26.273 28.7813 24.441C25.8413 21.4556 22.4387 17.9996 15.0056 17.9996Z" fill="#44403C"/>
</g>
<defs>
<clipPath id="clip0_73_209">
<rect width="60" height="36" fill="white"/>
</clipPath>
</defs>
</svg>
